<svg width="75" height="78" viewBox="0 0 75 78" fill="none" xmlns="http://www.w3.org/2000/svg">
<g id="Group 2">
<path id="Vector" d="M36.4429 0C36.4429 0 36.8869 22.3899 45.1735 30.4034C53.4599 38.4169 75 37.2866 75 37.2866C75 37.2866 53.437 37.7476 45.7195 46.352C38.002 54.9562 39.0904 77.3223 39.0904 77.3223C39.0904 77.3223 38.6464 54.9324 30.3599 46.9189C22.0734 38.9055 0.533325 40.0357 0.533325 40.0357C0.533325 40.0357 22.0963 39.5746 29.8139 30.9704C37.5313 22.3661 36.4429 0 36.4429 0Z" fill="#FFB000"/>
<path id="Vector_2" d="M37.9922 36.7609L37.5222 36.3064M37.9922 36.7609C40.0147 34.5062 41.4303 31.3879 42.4275 28.0341C43.427 24.6726 44.0204 21.0248 44.3693 17.6661C44.4252 17.1282 44.4748 16.5974 44.5189 16.076C44.5985 16.5929 44.6843 17.1186 44.7768 17.651C45.3546 20.9756 46.1961 24.5704 47.423 27.8496C48.6469 31.1213 50.2725 34.1275 52.4439 36.2274C54.6155 38.3274 57.6186 39.7973 60.8484 40.8327C64.0858 41.8706 67.5988 42.4869 70.8335 42.849C71.3514 42.9071 71.8626 42.9586 72.3648 43.0043C71.8669 43.087 71.3606 43.1761 70.848 43.2722C67.6463 43.8721 64.1842 44.7458 61.0261 46.0197C57.8752 47.2907 54.9801 48.9784 52.9577 51.2333C50.9353 53.488 49.5196 56.6063 48.5224 59.9601C47.5229 63.3214 46.9294 66.9693 46.5806 70.3281C46.5247 70.8659 46.475 71.3967 46.431 71.9182C46.3514 71.4012 46.2656 70.8754 46.1731 70.3431C45.5953 67.0186 44.7538 63.4238 43.5269 60.1446C42.3029 56.8727 40.6774 53.8667 38.506 51.7667C36.3344 49.6668 33.3313 48.1967 30.1014 47.1613C26.8641 46.1236 23.3511 45.5073 20.1164 45.145C19.5984 45.0871 19.0872 45.0354 18.585 44.9897C19.0829 44.9071 19.5892 44.818 20.1019 44.722C23.3037 44.1221 26.7657 43.2483 29.9238 41.9744C33.0747 40.7035 35.9698 39.0157 37.9922 36.7609Z" stroke="white"/>
</g>
</svg>
